# File created by Blade
# Date/Time:  Fri Jan 16 17:45:47 2015
#---------------------------------------------------------
:version 1.10
:name HOM
:units
  mass 1.0
  length 1.000000
  angle deg
:documentation
     Acclaim Skeleton File
:root
   axis xyz
   order TX TY TZ RX RY RZ
   position 0.000000 0.000000 0.000000
   orientation 0 0 0
:bonedata
   begin
      id 1
      name Spine_dum
      direction 0.000000 1.000000 0.000000
      length 7.170412
      axis 0.0 0.0 0.0 xyz
   end
   begin
      id 2
      name LeftUpLeg_dum
      direction 1.000000 0.000000 0.000000
      length 4.318350
      axis 0.0 0.0 0.0 xyz
   end
   begin
      id 3
      name RightUpLeg_dum
      direction -1.000000 0.000000 0.000000
      length 4.318350
      axis 0.0 0.0 0.0 xyz
   end
   begin
      id 4
      name Spine
      direction 0.000000 1.000000 0.000000
      length 0.000000
      axis 0.0 0.0 0.0 xyz
      dof rx ry rz
   end
   begin
      id 5
      name Spine_dum1
      direction 0.000000 1.000000 0.000000
      length 14.276153
      axis 0.0 0.0 0.0 xyz
   end
   begin
      id 6
      name Spine_dum2
      direction 0.000000 1.000000 0.000000
      length 10.718243
      axis 0.0 0.0 0.0 xyz
   end
   begin
      id 7
      name Spine_dum3
      direction 0.000000 1.000000 0.000000
      length 10.718243
      axis 0.0 0.0 0.0 xyz
   end
   begin
      id 8
      name Head
      direction 0.000000 1.000000 0.000000
      length 4.527550
      axis 0.0 0.0 0.0 xyz
      dof rx ry rz
   end
   begin
      id 9
      name LeftShoulder
      direction 1.000000 0.000000 0.000000
      length 7.058872
      axis 0.0 0.0 -90.0 xyz
      dof rx ry rz
   end
   begin
      id 10
      name LeftArm
      direction 1.000000 0.000000 0.000000
      length 10.955525
      axis 0.0 0.0 -90.0 xyz
      dof rx ry rz
   end
   begin
      id 11
      name LeftForeArm
      direction 1.000000 0.000000 0.000000
      length 8.193716
      axis 0.0 0.0 -90.0 xyz
      dof ry rz rx
   end
   begin
      id 12
      name LeftHand
      direction 0.000000 0.000000 0.000000
      length 0.000000
      axis 0.0 0.0 -90.0 xyz
      dof rx ry rz
   end
   begin
      id 13
      name LeftHand_dum1
      direction 0.000000 0.000000 0.000000
      length 0.000000
      axis 0.0 0.0 -90.0 xyz
   end
   begin
      id 14
      name LeftHand_dum2
      direction 1.000000 0.000000 0.000000
      length 3.937000
      axis 0.0 0.0 -90.0 xyz
   end
   begin
      id 15
      name LeftHandThumb1
      direction 0.000000 0.000000 1.000000
      length 3.937000
      axis 0.0 0.0 -90.0 xyz
      dof rx rz ry
   end
   begin
      id 16
      name RightShoulder
      direction -1.000000 0.000000 0.000000
      length 7.058872
      axis 0.0 0.0 90.0 xyz
      dof rx ry rz
   end
   begin
      id 17
      name RightArm
      direction -1.000000 0.000000 0.000000
      length 10.955525
      axis 0.0 0.0 90.0 xyz
      dof rx ry rz
   end
   begin
      id 18
      name RightForeArm
      direction -1.000000 0.000000 0.000000
      length 8.193716
      axis 0.0 0.0 90.0 xyz
      dof ry rz rx
   end
   begin
      id 19
      name RightHand
      direction 0.000000 0.000000 0.000000
      length 0.000000
      axis 0.0 0.0 90.0 xyz
      dof rx ry rz
   end
   begin
      id 20
      name RightHand_dum1
      direction 0.000000 0.000000 0.000000
      length 0.000000
      axis 0.0 0.0 90.0 xyz
   end
   begin
      id 21
      name RightHand_dum2
      direction -1.000000 0.000000 0.000000
      length 3.937000
      axis 0.0 0.0 90.0 xyz
   end
   begin
      id 22
      name RightHandThumb1
      direction 0.000000 0.000000 1.000000
      length 3.937000
      axis 0.0 0.0 90.0 xyz
      dof rx rz ry
   end
   begin
      id 23
      name LeftUpLeg
      direction 0.000000 -1.000000 0.000000
      length 17.323638
      axis 0.0 0.0 0.0 xyz
      dof rx ry rz
   end
   begin
      id 24
      name LeftLeg
      direction 0.000000 -1.000000 0.000000
      length 16.270368
      axis 0.0 0.0 0.0 xyz
      dof rx ry rz
   end
   begin
      id 25
      name LeftFoot
      direction 0.000000 -0.258819 0.965926
      length 4.922846
      axis 15.0 0.0 0.0 xyz
      dof rx ry rz
   end
   begin
      id 26
      name LeftToeBase
      direction 0.000000 0.000000 1.000000
      length 2.952750
      axis 0.0 0.0 0.0 xyz
      dof rx ry rz
   end
   begin
      id 27
      name RightUpLeg
      direction 0.000000 -1.000000 0.000000
      length 17.323638
      axis 0.0 0.0 0.0 xyz
      dof rx ry rz
   end
   begin
      id 28
      name RightLeg
      direction 0.000000 -1.000000 0.000000
      length 16.270368
      axis 0.0 0.0 0.0 xyz
      dof rx ry rz
   end
   begin
      id 29
      name RightFoot
      direction 0.000000 -0.258819 0.965926
      length 4.922846
      axis 15.0 0.0 0.0 xyz
      dof rx ry rz
   end
   begin
      id 30
      name RightToeBase
      direction 0.000000 0.000000 1.000000
      length 2.952750
      axis 0.0 0.0 0.0 xyz
      dof rx ry rz
   end
:hierarchy
   begin
      root Spine_dum LeftUpLeg_dum RightUpLeg_dum
      Spine_dum Spine
      LeftUpLeg_dum LeftUpLeg
      RightUpLeg_dum RightUpLeg
      Spine Spine_dum1 Spine_dum2 Spine_dum3
      Spine_dum1 Head
      Spine_dum2 LeftShoulder
      Spine_dum3 RightShoulder
      LeftShoulder LeftArm
      LeftArm LeftForeArm
      LeftForeArm LeftHand
      LeftHand LeftHand_dum1 LeftHand_dum2
      LeftHand_dum1 LeftHandThumb1
      RightShoulder RightArm
      RightArm RightForeArm
      RightForeArm RightHand
      RightHand RightHand_dum1 RightHand_dum2
      RightHand_dum1 RightHandThumb1
      LeftUpLeg LeftLeg
      LeftLeg LeftFoot
      LeftFoot LeftToeBase
      RightUpLeg RightLeg
      RightLeg RightFoot
      RightFoot RightToeBase
   end

# File created by Blade
# Date/Time:  Fri Jan 16 17:45:28 2015
# Frame Rate: 120.000 fps
#------------------------------------------------------
:FULLY-SPECIFIED
:DEGREES
2917
root -5.283600 35.189352 -9.640763 -1.972660 -4.384393 -6.177699
Spine -2.346238 -3.774201 7.369957
Head 8.381115 -0.295285 -5.989704
LeftShoulder -20.549431 14.843523 -16.318951
LeftArm 17.971065 -1.974374 -75.028225
LeftForeArm 5.158456 -0.000000 12.485190
LeftHand 2.002481 0.000000 -5.789156
LeftHandThumb1 -26.253704 0.000000 33.147579
RightShoulder -6.832690 3.032550 3.810022
RightArm -13.217387 48.330002 63.511729
RightForeArm 32.050370 -0.000000 14.343679
RightHand 3.758344 -0.000000 -19.093409
RightHandThumb1 -24.326973 -0.000000 -32.862282
LeftUpLeg 12.363643 13.742936 7.341123
LeftLeg -9.288458 -0.000000 0.000000
LeftFoot -15.997410 27.528616 -7.562516
LeftToeBase 23.087004 -0.000000 -0.000000
RightUpLeg 8.978615 -5.181278 4.089829
RightLeg -4.244158 -0.000000 0.000000
RightFoot -5.142243 -27.832379 4.210486
RightToeBase 13.784887 -0.000000 -0.000000
2918
root -5.282770 35.188702 -9.639194 -1.979034 -4.409883 -6.179434
Spine -2.309673 -3.829267 7.398432
Head 8.352858 -0.241383 -6.018590
LeftShoulder -20.590179 14.848972 -16.341876
LeftArm 17.958124 -1.964111 -75.061535
LeftForeArm 5.143587 -0.000000 12.470912
LeftHand 2.034371 -0.000000 -5.775417
LeftHandThumb1 -26.253704 0.000000 33.147579
RightShoulder -6.824365 2.991287 3.804003
RightArm -13.153504 48.010522 63.930696
RightForeArm 32.350564 -0.000000 13.811163
RightHand 3.675333 0.000000 -18.934817
RightHandThumb1 -24.326973 -0.000000 -32.862282
LeftUpLeg 12.389800 13.746029 7.342016
LeftLeg -9.307680 -0.000000 0.000000
LeftFoot -15.992181 27.541146 -7.577302
LeftToeBase 23.053622 -0.000000 -0.000000
RightUpLeg 8.990848 -5.151142 4.085676
RightLeg -4.249512 -0.000000 0.000000
RightFoot -5.149606 -27.811061 4.225761
RightToeBase 13.762591 -0.000000 -0.000000
2919
root -5.280421 35.187892 -9.638080 -1.983513 -4.434277 -6.178529
Spine -2.274733 -3.868306 7.432155
Head 8.330724 -0.201568 -6.066799
LeftShoulder -20.614560 14.904141 -16.389008
LeftArm 17.993188 -1.945581 -75.080029
LeftForeArm 5.119177 -0.000000 12.474824
LeftHand 2.026767 0.000000 -5.783072
LeftHandThumb1 -26.253704 0.000000 33.147579
RightShoulder -6.828751 2.943604 3.806906
RightArm -13.071326 47.881055 64.302025
RightForeArm 32.674911 -0.000000 13.229822
RightHand 3.560106 -0.000000 -18.515011
RightHandThumb1 -24.326973 -0.000000 -32.862282
LeftUpLeg 12.411957 13.777341 7.341356
LeftLeg -9.333066 -0.000000 0.000000
LeftFoot -15.996450 27.578780 -7.495459
LeftToeBase 23.213649 -0.000000 -0.000000
RightUpLeg 9.005785 -5.100824 4.080986
RightLeg -4.269058 -0.000000 0.000000
RightFoot -5.141498 -27.822727 4.243110
RightToeBase 13.745539 -0.000000 -0.000000
2920
root -5.279308 35.187362 -9.637469 -1.981508 -4.470766 -6.183686
Spine -2.242484 -3.896916 7.461385
Head 8.301537 -0.173065 -6.091163
LeftShoulder -20.630423 14.910128 -16.402814
LeftArm 17.974469 -1.947172 -75.118031
LeftForeArm 5.154752 -0.000000 12.480066
LeftHand 1.994008 -0.000000 -5.869576
LeftHandThumb1 -26.253704 0.000000 33.147579
RightShoulder -6.826855 2.933770 3.783826
RightArm -13.008577 47.641899 64.681556
RightForeArm 32.965818 -0.000000 12.605567
RightHand 3.589119 -0.000000 -18.177173
RightHandThumb1 -24.326973 -0.000000 -32.862282
LeftUpLeg 12.434016 13.794994 7.343831
LeftLeg -9.360825 -0.000000 0.000000
LeftFoot -15.991709 27.605920 -7.486304
LeftToeBase 23.221562 -0.000000 -0.000000
RightUpLeg 9.003628 -5.075582 4.082245
RightLeg -4.266462 -0.000000 0.000000
RightFoot -5.151450 -27.797775 4.261081
RightToeBase 13.727630 -0.000000 -0.000000
2921
root -5.278252 35.187015 -9.636620 -1.984270 -4.509322 -6.180422
Spine -2.207794 -3.943628 7.481922
Head 8.272668 -0.111308 -6.123691
LeftShoulder -20.660016 14.903799 -16.421768
LeftArm 17.948767 -1.907306 -75.130539
LeftForeArm 5.149075 -0.000000 12.491851
LeftHand 1.969166 -0.000000 -5.926477
LeftHandThumb1 -26.253704 0.000000 33.147579
RightShoulder -6.791241 2.889709 3.800131
RightArm -13.046546 47.622635 64.956195
RightForeArm 33.071619 -0.000000 12.226102
RightHand 2.721534 -0.000000 -17.583249
RightHandThumb1 -24.326973 -0.000000 -32.862282
LeftUpLeg 12.457283 13.836195 7.341525
LeftLeg -9.380225 -0.000000 0.000000
LeftFoot -15.972471 27.579285 -7.575650
LeftToeBase 23.061555 -0.000000 -0.000000
RightUpLeg 9.004261 -5.068711 4.073144
RightLeg -4.264660 -0.000000 0.000000
RightFoot -5.145726 -27.768496 4.249531
RightToeBase 13.719920 -0.000000 -0.000000
2922
root -5.278015 35.187120 -9.638172 -1.977539 -4.569453 -6.192758
Spine -2.180255 -3.949056 7.531733
Head 8.257520 -0.076939 -6.188393
LeftShoulder -20.689532 14.938904 -16.478020
LeftArm 17.995290 -1.915981 -75.148047
LeftForeArm 5.234855 -0.000000 12.480402
LeftHand 1.918364 -0.000000 -5.988716
LeftHandThumb1 -26.253704 0.000000 33.147579
RightShoulder -6.769624 2.884903 3.785834
RightArm -13.139365 47.585158 65.208199
RightForeArm 33.074730 -0.000000 11.876465
RightHand 1.792106 -0.000000 -17.169568
RightHandThumb1 -24.326973 -0.000000 -32.862282
LeftUpLeg 12.473968 13.891468 7.356412
LeftLeg -9.400140 -0.000000 0.000000
LeftFoot -15.963340 27.581410 -7.564554
LeftToeBase 23.044908 -0.000000 -0.000000
RightUpLeg 8.988154 -4.999425 4.085798
RightLeg -4.253408 -0.000000 0.000000
RightFoot -5.149471 -27.759752 4.259440
RightToeBase 13.747836 -0.000000 -0.000000
2923
root -5.275398 35.185698 -9.638704 -1.979968 -4.629746 -6.181001
Spine -2.132527 -3.972990 7.536145
Head 8.212614 -0.011128 -6.195131
LeftShoulder -20.692097 14.837679 -16.434874
LeftArm 17.872357 -1.897833 -75.197469
LeftForeArm 5.229602 -0.000000 12.502832
LeftHand 1.984459 0.000000 -5.880648
LeftHandThumb1 -26.253704 0.000000 33.147579
RightShoulder -6.745451 2.874796 3.817711
RightArm -13.143709 47.402857 65.508469
RightForeArm 33.622659 -0.000000 11.543398
RightHand 1.855232 -0.000000 -17.114238
RightHandThumb1 -24.326973 -0.000000 -32.862282
LeftUpLeg 12.503887 13.953322 7.345115
LeftLeg -9.429973 -0.000000 0.000000
LeftFoot -15.957021 27.587778 -7.573979
LeftToeBase 23.077685 -0.000000 -0.000000
RightUpLeg 8.988463 -4.919135 4.073331
RightLeg -4.258813 -0.000000 0.000000
RightFoot -5.153541 -27.775797 4.247084
RightToeBase 13.753345 -0.000000 -0.000000
